<?xml version="1.0" encoding="utf-8"?>
<!-- Generator: Adobe Illustrator 24.0.2, SVG Export Plug-In . SVG Version: 6.00 Build 0)  -->
<svg version="1.1" id="Layer_1" xmlns="http://www.w3.org/2000/svg" xmlns:xlink="http://www.w3.org/1999/xlink" x="0px" y="0px"
	 viewBox="0 0 1000 1000" width="20.5" height="20.479" style="enable-background:new 0 0 1000 1000;" xml:space="preserve">
<style type="text/css">
	.st0{fill:#FFFFFF;}
</style>
<g>
	<path class="st0" d="M716.5,838.6c0,0,56.1-58.8,57.5-112.2c1.4-53.1-4.1-134.8-4.1-135.4c6.7-6.3,13.5-12.8,20.2-19.5
		C975.7,386,1028.3,55.7,986.5,14c-43.1-43.1-372.2,10.8-557.8,196.3c-6.7,6.7-13.2,13.5-19.5,20.2c-1.2-0.1-82.5-5.5-135.5-4.1
		c-53.4,1.4-112.2,57.5-112.2,57.5L0,535.6l257.9,9.3c0.8,55.9,20.1,104.4,56.6,140.8c36.4,36.4,85,55.7,140.9,56.5l9.3,257.8
		L716.5,838.6z M617.6,384c-44.2-44.2-44.2-115.9,0-160.1s115.9-44.2,160.1,0s44.2,115.9,0,160.1S661.9,428.2,617.6,384z"/>
	<path class="st0" d="M253.8,746.4c-39.9-39.9-63.3-90.7-70.8-145.5L22.1,761.5l111.5,1L74.2,925.9l163.5-59.4l1,111.4l160.8-160.7
		C344.6,809.6,293.7,786.2,253.8,746.4z"/>
</g>
</svg>
